<svg _ngcontent-vct-c1="" class="c-logo--login u-full-width u-flex-center" height="40" viewBox="0 0 159 40" width="159" xmlns="http://www.w3.org/2000/svg"><g _ngcontent-vct-c1="" class="ng-tns-c1-2" fill="#fff"><path _ngcontent-vct-c1="" class="ng-tns-c1-2" d="M26.345 24.434c.807 0 1.541.327 2.07.86.529.529.859 1.264.859 2.069 0 .808-.33 1.542-.859 2.072-.529.532-1.263.86-2.07.86-.804 0-1.538-.327-2.067-.86-.532-.53-.859-1.264-.859-2.072 0-1.616 1.312-2.929 2.926-2.929zm-2.07-10.86c1.143-1.144 2.997-1.144 4.14 0 1.124 1.125 1.142 2.939.055 4.086l-.055.057-11.707 11.718c-1.145 1.144-2.997 1.144-4.14 0-1.124-1.125-1.142-2.936-.055-4.086l.055-.057 11.708-11.717zm-15.496 3.791c1.143-1.144 2.997-1.144 4.14 0 1.124 1.125 1.142 2.936.055 4.084l-.055.057-7.922 7.929c-1.143 1.143-2.997 1.143-4.14 0-1.124-1.125-1.142-2.937-.055-4.086l.055-.057 7.922-7.926zm3.788-15.509c1.143-1.146 2.994-1.146 4.137 0 1.124 1.125 1.142 2.936.055 4.084l-.055.057-11.707 11.72c-1.143 1.144-2.997 1.144-4.14 0-1.124-1.127-1.143-2.939-.055-4.086l.055-.057 11.71-11.717zm11.71-.003c1.143-1.144 2.997-1.144 4.14 0 1.124 1.125 1.142 2.936.055 4.084l-.055.057-7.922 7.929c-1.143 1.144-2.997 1.144-4.14 0-1.124-1.125-1.142-2.936-.055-4.086l.055-.057 7.922-7.926zm-21.351-.857c.807 0 1.538.328 2.07.86.529.53.859 1.264.859 2.069 0 .808-.33 1.542-.859 2.072-.532.532-1.263.86-2.07.86-.804 0-1.538-.327-2.07-.86-.529-.53-.856-1.264-.856-2.072 0-1.616 1.312-2.929 2.926-2.929zM86.828 7.202l5.101 13.811 5.061-13.811h7.315l-13.839 32.569h-7.275l5.061-11.239-8.975-21.33h7.552zm28.464-.316c6.484 0 11.466 4.353 11.466 11.357 0 7.005-5.061 11.358-11.545 11.358s-11.387-4.353-11.387-11.358c0-7.004 5.021-11.357 11.467-11.357zm-58.453-5.382c5.654 0 9.015 2.81 9.015 7.202 0 3.364-2.017 5.54-4.705 6.332 3.242.673 5.338 3.522 5.338 6.688 0 4.59-3.361 7.558-9.213 7.558h-12.929v-27.78h12.494zm20.323-1.504v29.284h-6.761v-29.284h6.761zm60.824 1.821v5.382h4.428v5.619h-4.428v8.865c0 1.306.553 1.86 2.056 1.86h2.412v5.738h-3.44c-4.587 0-7.789-1.939-7.789-7.677v-8.785h-2.689v-5.619h2.689v-5.382h6.761zm16.052 0v5.382h4.428v5.619h-4.428v8.865c0 1.306.553 1.86 2.056 1.86h2.412v5.738h-3.44c-4.587 0-7.789-1.939-7.789-7.677v-8.785h-2.689v-5.619h2.689v-5.382h6.761zm-98.03 15.869h-4.903v6.134h4.982c2.254 0 3.558-1.029 3.558-3.007 0-1.979-1.384-3.126-3.637-3.126zm59.284-4.947c-2.451 0-4.587 1.741-4.587 5.501 0 3.72 2.056 5.501 4.508 5.501 2.412 0 4.666-1.781 4.666-5.501 0-3.759-2.214-5.501-4.587-5.501zm-59.758-5.817h-4.429v5.817h4.429c2.214 0 3.44-.989 3.44-2.889 0-1.899-1.226-2.928-3.44-2.928z"></path></g></svg>