<svg width="351" height="274" viewBox="0 0 351 274" fill="none" xmlns="http://www.w3.org/2000/svg">
<path d="M175.5 219C218.854 219 254 185.197 254 143.5C254 101.802 218.854 68 175.5 68C132.146 68 97 101.802 97 143.5C97 185.197 132.146 219 175.5 219Z" fill="#F50057"/>
<path d="M197.786 138.429H181.214V123.571C181.214 122.094 180.56 120.677 179.394 119.632C178.229 118.587 176.648 118 175 118C173.352 118 171.771 118.587 170.606 119.632C169.44 120.677 168.786 122.094 168.786 123.571V138.429H152.214C150.566 138.429 148.986 139.016 147.82 140.06C146.655 141.105 146 142.522 146 144C146 145.478 146.655 146.895 147.82 147.94C148.986 148.984 150.566 149.571 152.214 149.571H168.786V164.429C168.786 165.906 169.44 167.323 170.606 168.368C171.771 169.413 173.352 170 175 170C176.648 170 178.229 169.413 179.394 168.368C180.56 167.323 181.214 165.906 181.214 164.429V149.571H197.786C199.434 149.571 201.014 148.984 202.18 147.94C203.345 146.895 204 145.478 204 144C204 142.522 203.345 141.105 202.18 140.06C201.014 139.016 199.434 138.429 197.786 138.429V138.429Z" fill="white"/>
</svg>
